<svg viewBox="0 0 28 28" fill="none" xmlns="http://www.w3.org/2000/svg">
  <path
    d="M22.8306 0C25.4151 0 26.2768 1.29216 26.2769 3.66113V17.877C26.2768 19.9446 25.4157 20.8925 24.5542 20.8926V24.5537C25.2003 24.5537 26.2766 24.3386 26.2769 25.8457C26.2769 27.784 24.9851 28 23.2622 28H8.3999C5.16917 27.9999 1.72314 25.6303 1.72314 21.5381V7.75391C1.72314 3.01556 4.09229 0.000140389 8.83057 0H22.8306ZM7.32275 20.6768C6.25239 20.677 5.38433 21.5448 5.38428 22.6152C5.38434 23.6856 6.2524 24.5535 7.32275 24.5537H20.8921V20.6768H7.32275ZM10.1226 10.7695C9.64708 10.7699 9.26123 11.1553 9.26123 11.6309C9.26134 12.1063 9.64715 12.4918 10.1226 12.4922H20.0308C20.5065 12.4922 20.892 12.1066 20.8921 11.6309C20.8921 11.155 20.5066 10.7695 20.0308 10.7695H10.1226ZM10.1226 7.32324C9.64712 7.32364 9.26128 7.70905 9.26123 8.18457C9.26129 8.66009 9.64712 9.0455 10.1226 9.0459H20.0308C20.5065 9.0459 20.892 8.66033 20.8921 8.18457C20.892 7.7088 20.5065 7.32324 20.0308 7.32324H10.1226Z"
    fill="#81728C" />
</svg>