<svg viewBox="0 0 28 28" fill="none" xmlns="http://www.w3.org/2000/svg">
  <g clip-path="url(#clip0_2261_4979)">
    <path fill-rule="evenodd" clip-rule="evenodd"
      d="M14.0116 0C6.26354 0 0 6.30972 0 14.1157C0 20.3554 4.01327 25.6372 9.58073 27.5066C10.2768 27.6472 10.5318 27.2029 10.5318 26.8292C10.5318 26.502 10.5088 25.3803 10.5088 24.2115C6.61115 25.053 5.79949 22.5288 5.79949 22.5288C5.17311 20.8929 4.245 20.4724 4.245 20.4724C2.96929 19.6077 4.33793 19.6077 4.33793 19.6077C5.75303 19.7012 6.49557 21.0567 6.49557 21.0567C7.74804 23.2066 9.76629 22.5991 10.5782 22.2251C10.6941 21.3136 11.0655 20.6827 11.4599 20.3322C8.3512 20.005 5.08047 18.7898 5.08047 13.3677C5.08047 11.8253 5.63687 10.5633 6.51851 9.58188C6.37941 9.2314 5.89213 7.78217 6.6579 5.84251C6.6579 5.84251 7.84097 5.46852 10.5085 7.29145C11.6506 6.98246 12.8284 6.82528 14.0116 6.82396C15.1947 6.82396 16.4007 6.98772 17.5143 7.29145C20.1822 5.46852 21.3653 5.84251 21.3653 5.84251C22.131 7.78217 21.6435 9.2314 21.5044 9.58188C22.4092 10.5633 22.9427 11.8253 22.9427 13.3677C22.9427 18.7898 19.672 19.9814 16.5401 20.3322C17.0506 20.7762 17.4911 21.6174 17.4911 22.9496C17.4911 24.8425 17.4682 26.3617 17.4682 26.8289C17.4682 27.2029 17.7234 27.6472 18.4192 27.5069C23.9867 25.6369 27.9999 20.3554 27.9999 14.1157C28.0229 6.30972 21.7364 0 14.0116 0Z"
      fill="#81728C" />
  </g>
  <defs>
    <clipPath id="clip0_2261_4979">
      <rect width="100%" height="100%" fill="white" />
    </clipPath>
  </defs>
</svg>