<svg viewBox="0 0 28 28" fill="none" xmlns="http://www.w3.org/2000/svg">
  <g clip-path="url(#clip0_2261_4990)">
    <path
      d="M28 13.799C28 17.5082 27.3784 20.517 26.6113 20.517C25.8443 20.517 25.2229 17.509 25.2229 13.799C25.2229 10.089 25.8445 7.08105 26.6113 7.08105C27.3781 7.08105 28 10.0887 28 13.799Z"
      fill="#81728C" />
    <path
      d="M24.4566 13.7988C24.4566 17.9397 22.6888 21.2979 20.5081 21.2979C18.3274 21.2979 16.5596 17.9397 16.5596 13.7988C16.5596 9.65798 18.3271 6.2998 20.5078 6.2998C22.6885 6.2998 24.4563 9.6569 24.4563 13.7988"
      fill="#81728C" />
    <path
      d="M15.7937 13.7991C15.7937 18.1983 12.2581 21.7645 7.89698 21.7645C3.53585 21.7645 0 18.1975 0 13.7991C0 9.40078 3.53558 5.8335 7.89698 5.8335C12.2584 5.8335 15.7937 9.39998 15.7937 13.7991Z"
      fill="#81728C" />
  </g>
  <defs>
    <clipPath id="clip0_2261_4990">
      <rect width="100%" height="100%" fill="white" />
    </clipPath>
  </defs>
</svg>