<svg viewBox="0 0 28 28" fill="none" xmlns="http://www.w3.org/2000/svg">
  <g clip-path="url(#clip0_2261_4994)">
    <path
      d="M28.2246 11.0486C28.2885 9.198 27.8838 7.36122 27.048 5.70884C26.481 5.03083 25.694 4.57328 24.8242 4.41591C21.2266 4.08948 17.6142 3.95569 14.0024 4.01511C10.4037 3.95299 6.80429 4.08247 3.21938 4.40298C2.51063 4.53191 1.85472 4.86435 1.33171 5.35975C0.168075 6.43288 0.0387825 8.26884 -0.0905102 9.82035C-0.278098 12.6099 -0.278098 15.4089 -0.0905102 18.1985C-0.0531056 19.0718 0.0769159 19.9386 0.297368 20.7844C0.453263 21.4374 0.768669 22.0415 1.21535 22.5427C1.74191 23.0644 2.41309 23.4157 3.14181 23.5512C5.92925 23.8953 8.73788 24.0379 11.5458 23.9779C16.0711 24.0425 20.0404 23.9779 24.7337 23.6159C25.4803 23.4887 26.1704 23.1369 26.7119 22.6074C27.0738 22.2453 27.3442 21.802 27.5005 21.3145C27.9629 19.8956 28.19 18.4107 28.1729 16.9185C28.2246 16.1945 28.2246 11.8244 28.2246 11.0486ZM11.0804 17.6943V9.69105L18.7345 13.7121C16.5882 14.9016 13.7567 16.2462 11.0804 17.6943Z"
      fill="#81728C" />
  </g>
  <defs>
    <clipPath id="clip0_2261_4994">
      <rect width="100%" height="100%" fill="white" />
    </clipPath>
  </defs>
</svg>