<svg xmlns="http://www.w3.org/2000/svg" viewBox="0 0 32 32">
  <path
    fill="currentColor"
    d="M16 5.333c8.1 0 14.667 3.581 14.667 8v5.333c0 4.419-6.567 8-14.667 8-7.956 0-14.432-3.455-14.66-7.764l-0.007-0.236v-5.333c0-4.419 6.567-8 14.667-8zM16 21.333c-4.96 0-9.347-1.343-12-3.4v0.733c0 2.509 5.177 5.333 12 5.333 6.68 0 11.784-2.707 11.993-5.176l0.007-0.157 0.001-0.733c-2.653 2.056-7.040 3.4-12.001 3.4zM16 8c-6.823 0-12 2.824-12 5.333s5.177 5.333 12 5.333 12-2.824 12-5.333c0-2.509-5.177-5.333-12-5.333z"
  ></path>
</svg>
