<svg viewBox="0 0 46 47" fill="none" xmlns="http://www.w3.org/2000/svg">
  <circle cx="23.0434" cy="23.5005" r="22.9565" fill="#81728C" />
  <path
    d="M14.0898 22.8301C14.0896 22.822 14.0889 22.8138 14.0889 22.8057C14.0889 22.3529 14.463 21.9813 14.9424 21.9365L15.0391 21.9316L29.0293 21.9316L25.582 18.7607C25.1215 18.3371 25.0489 17.7165 25.4199 17.375C25.7913 17.0335 26.466 17.1007 26.9268 17.5244L31.7939 22.001C32.1346 22.1339 32.374 22.4439 32.374 22.8057C32.374 22.8251 32.3715 22.8442 32.3701 22.8633C32.3705 22.874 32.3721 22.8847 32.3721 22.8955C32.3718 23.2561 32.1341 23.5657 31.7949 23.6992L26.9268 28.1768C26.4661 28.6002 25.7912 28.6674 25.4199 28.3262C25.0488 27.9848 25.1218 27.3641 25.582 26.9404L29.0293 23.7695L15.0371 23.7695L14.9404 23.7646C14.4611 23.7198 14.0872 23.3481 14.0869 22.8955C14.0869 22.8735 14.0881 22.8517 14.0898 22.8301Z"
    fill="white" />
</svg>