<svg viewBox="0 0 41 41" fill="none" xmlns="http://www.w3.org/2000/svg">
  <path
    d="M8.42041 20.4997L7.7133 19.7926L7.0062 20.4997L7.7133 21.2068L8.42041 20.4997ZM28.4204 21.4997C28.9727 21.4997 29.4204 21.052 29.4204 20.4997C29.4204 19.9474 28.9727 19.4997 28.4204 19.4997V21.4997ZM15.0871 13.833L14.38 13.1259L7.7133 19.7926L8.42041 20.4997L9.12752 21.2068L15.7942 14.5401L15.0871 13.833ZM8.42041 20.4997L7.7133 21.2068L14.38 27.8734L15.0871 27.1663L15.7942 26.4592L9.12752 19.7926L8.42041 20.4997ZM8.42041 20.4997V21.4997H28.4204V20.4997V19.4997H8.42041V20.4997Z"
    fill="currentColor" />
</svg>