<svg width="15" height="15" viewBox="0 0 15 15" fill="none" xmlns="http://www.w3.org/2000/svg">
  <rect x="0.0869141" y="0.5" width="14" height="14" rx="7" fill="#00C4FF" />
  <path
    d="M3.08691 6.83301C3.08691 5.8902 3.08691 5.41879 3.37981 5.1259C3.6727 4.83301 4.1441 4.83301 5.08691 4.83301H9.08693C10.0297 4.83301 10.5011 4.83301 10.794 5.1259C11.0869 5.41879 11.0869 5.8902 11.0869 6.83301V8.49968C11.0869 9.44248 11.0869 9.91389 10.794 10.2068C10.5011 10.4997 10.0297 10.4997 9.08694 10.4997H5.08692C4.14411 10.4997 3.6727 10.4997 3.37981 10.2068C3.08691 9.91389 3.08691 9.44248 3.08691 8.49967V6.83301Z"
    stroke="white" />
  <path d="M3.53125 7.05566H10.6424" stroke="white" stroke-linecap="round" />
  <path d="M5.08691 4.5L5.08691 5.27778" stroke="white" stroke-linecap="round" />
  <path d="M9.08691 4.5L9.08691 5.27778" stroke="white" stroke-linecap="round" />
</svg>