<svg viewBox="0 0 15 15" fill="none" xmlns="http://www.w3.org/2000/svg">
  <path
    d="M6.58694 4.5C6.58694 4.22385 6.36309 4 6.08693 4H3.08692C2.53462 4 2.08691 4.4477 2.08691 5V11.5C2.08691 12.0523 2.53462 12.5 3.08692 12.5H9.58695C10.1393 12.5 10.587 12.0523 10.587 11.5V8.5C10.587 8.22385 10.3631 8 10.087 8C9.8108 8 9.58695 8.22385 9.58695 8.5V11.5H3.08692V5H6.08693C6.36309 5 6.58694 4.77615 6.58694 4.5Z"
    fill="#81728C" />
  <path fill-rule="evenodd" clip-rule="evenodd"
    d="M10.3798 3.5H8.58689C8.31074 3.5 8.08689 3.27615 8.08689 3C8.08689 2.72385 8.31074 2.5 8.58689 2.5H11.5869C11.8631 2.5 12.0869 2.72385 12.0869 3V6C12.0869 6.27615 11.8631 6.5 11.5869 6.5C11.3108 6.5 11.0869 6.27615 11.0869 6V4.2071L6.29398 9C6.09873 9.19525 5.78214 9.19525 5.58688 9C5.39163 8.80475 5.39163 8.48815 5.58688 8.2929L10.3798 3.5Z"
    fill="#81728C" />
</svg>