<svg xmlns="http://www.w3.org/2000/svg" width="22" height="22" viewBox="0 0 22 22" fill="none">
  <path d="M3.20825 1.83325C3.11659 1.83325 2.93289 1.83289 2.84123 1.92456C2.74956 2.10789 2.74956 2.47528 2.84123 2.65861L4.61011 4.42749C2.89159 6.11425 1.83325 8.44898 1.83325 10.9999C1.83325 16.0721 5.9277 20.1666 10.9999 20.1666C16.0721 20.1666 20.1666 16.0721 20.1666 10.9999C20.1666 6.31828 16.5984 2.4388 12.0186 1.92993C11.9883 1.92662 11.9578 1.92483 11.9273 1.92456C11.6918 1.92126 11.464 2.00877 11.2912 2.16894C11.1184 2.3291 11.014 2.54963 10.9995 2.78477C10.985 3.01991 11.0615 3.25161 11.2133 3.4318C11.365 3.61199 11.5804 3.72684 11.8145 3.75252C15.4847 4.16032 18.3333 7.24823 18.3333 10.9999C18.3333 15.0944 15.0944 18.3333 10.9999 18.3333C6.90547 18.3333 3.66659 15.0944 3.66659 10.9999C3.66659 8.94379 4.5195 7.06988 5.90275 5.72013L7.42456 7.24194C7.60789 7.33361 7.97528 7.33361 8.15861 7.24194C8.25028 7.15028 8.24992 6.96659 8.24992 6.87492V3.58244V2.74992C8.24992 2.19992 7.88325 1.83325 7.33325 1.83325H3.20825Z" fill="#000"/>
</svg>
