<svg viewBox="0 0 24 24" fill="none" xmlns="http://www.w3.org/2000/svg">
  <path d="M21.0041 2.61084L13.2002 8.43117L14.6433 4.99725L21.0041 2.61084Z" fill="#E2761B" />
  <path
    d="M2.98857 2.61084L10.7297 8.4863L9.3572 4.99725L2.98857 2.61084ZM18.1964 16.1024L16.118 19.3L20.565 20.5286L21.8435 16.1732L18.1964 16.1024ZM2.16504 16.1732L3.43563 20.5286L7.88269 19.3L5.80426 16.1024L2.16504 16.1732Z"
    fill="#E4761B" />
  <path
    d="M7.63179 10.6993L6.39258 12.5817L10.8083 12.7786L10.6514 8.01363L7.63179 10.6993ZM16.3612 10.6993L13.3024 7.9585L13.2004 12.7786L17.6083 12.5817L16.3612 10.6993ZM7.88277 19.2999L10.5338 18.0003L8.24356 16.2046L7.88277 19.2999ZM13.4592 18.0003L16.1181 19.2999L15.7494 16.2046L13.4592 18.0003Z"
    fill="#E4761B" />
  <path
    d="M16.1181 19.3L13.4593 18.0005L13.671 19.7411L13.6475 20.4735L16.1181 19.3ZM7.88281 19.3L10.3534 20.4735L10.3377 19.7411L10.5338 18.0005L7.88281 19.3Z"
    fill="#D7C1B3" />
  <path
    d="M10.3924 15.055L8.18066 14.4013L9.74145 13.6846L10.3924 15.055ZM13.6003 15.055L14.2513 13.6846L15.8199 14.4013L13.6003 15.055Z"
    fill="#233447" />
  <path
    d="M7.88214 19.3002L8.25861 16.1026L5.80371 16.1735L7.88214 19.3002ZM15.741 16.1026L16.1174 19.3002L18.1959 16.1735L15.741 16.1026ZM17.6076 12.582L13.1998 12.7789L13.6076 15.0551L14.2586 13.6847L15.8272 14.4014L17.6076 12.582ZM8.18018 14.4014L9.74881 13.6847L10.3919 15.0551L10.8076 12.7789L6.39195 12.582L8.18018 14.4014Z"
    fill="#CD6116" />
  <path
    d="M6.39258 12.582L8.24356 16.205L8.18081 14.4014L6.39258 12.582ZM15.8279 14.4014L15.7494 16.205L17.6083 12.582L15.8279 14.4014ZM10.8083 12.7789L10.3926 15.0551L10.9102 17.7408L11.0279 14.2045L10.8083 12.7789ZM13.2004 12.7789L12.9887 14.1966L13.0828 17.7408L13.6083 15.0551L13.2004 12.7789Z"
    fill="#E4751F" />
  <path
    d="M13.6081 15.0551L13.0826 17.7408L13.4591 18.0007L15.7493 16.205L15.8277 14.4014L13.6081 15.0551ZM8.18066 14.4014L8.24341 16.205L10.5336 18.0007L10.9101 17.7408L10.3924 15.0551L8.18066 14.4014Z"
    fill="#F6851B" />
  <path
    d="M13.6475 20.4733L13.671 19.7409L13.475 19.5676H10.5181L10.3377 19.7409L10.3534 20.4733L7.88281 19.2998L8.74556 20.0086L10.4946 21.2294H13.4985L15.2554 20.0086L16.1181 19.2998L13.6475 20.4733Z"
    fill="#C0AD9E" />
  <path
    d="M13.4585 18.0006L13.082 17.7407H10.9095L10.533 18.0006L10.3369 19.7412L10.5173 19.5679H13.4742L13.6702 19.7412L13.4585 18.0006Z"
    fill="#161616" />
  <path
    d="M21.3333 8.80922L22 5.59583L21.0039 2.61084L13.4588 8.23427L16.3608 10.6994L20.4627 11.9045L21.3725 10.8412L20.9804 10.5577L21.6078 9.98273L21.1216 9.60469L21.749 9.12425L21.3333 8.80922ZM2 5.59583L2.66667 8.80922L2.24314 9.12425L2.87059 9.60469L2.39216 9.98273L3.01961 10.5577L2.62745 10.8412L3.52941 11.9045L7.63137 10.6994L10.5333 8.23427L2.98824 2.61084L2 5.59583Z"
    fill="#763D16" />
  <path
    d="M20.4631 11.9043L16.3611 10.6993L17.6082 12.5816L15.7494 16.2046L18.1964 16.173H21.8435L20.4631 11.9043ZM7.63171 10.6993L3.52974 11.9043L2.16504 16.173H5.80426L8.24347 16.2046L6.39249 12.5816L7.63171 10.6993ZM13.2003 12.7785L13.4592 8.23409L14.6513 4.99707H9.3572L10.5337 8.23409L10.8082 12.7785L10.9023 14.2119L10.9101 17.7404H13.0827L13.0984 14.2119L13.2003 12.7785Z"
    fill="#F6851B" />
</svg>