<svg width="15" height="15" viewBox="0 0 15 15" fill="none" xmlns="http://www.w3.org/2000/svg">
  <rect x="0.0869141" y="0.5" width="14" height="14" rx="7" fill="#FFAE00" />
  <path
    d="M10.6254 5.88477H3.54845C3.29355 5.88477 3.08691 6.09141 3.08691 6.3463V10.0386C3.08691 10.2935 3.29355 10.5002 3.54845 10.5002H10.6254C10.8803 10.5002 11.0869 10.2935 11.0869 10.0386V6.3463C11.0869 6.09141 10.8803 5.88477 10.6254 5.88477Z"
    stroke="white" stroke-linecap="round" stroke-linejoin="round" />
  <path
    d="M8.47138 5.88462V4.96154C8.47138 4.83913 8.42275 4.72174 8.3362 4.63518C8.24964 4.54863 8.13225 4.5 8.00984 4.5H6.16369C6.04128 4.5 5.92389 4.54863 5.83733 4.63518C5.75078 4.72174 5.70215 4.83913 5.70215 4.96154V5.88462"
    stroke="white" stroke-linecap="round" stroke-linejoin="round" />
  <path
    d="M7.67619 7.57723C7.65593 7.5199 7.62466 7.46777 7.58493 7.42338C7.50042 7.32895 7.37761 7.26953 7.24091 7.26953H6.88366C6.65613 7.26953 6.47168 7.45399 6.47168 7.68152C6.47168 7.87513 6.60649 8.04261 6.79562 8.08399L7.33954 8.20297C7.55143 8.24932 7.70246 8.43709 7.70246 8.65399C7.70246 8.90887 7.49582 9.11569 7.24091 9.11569H6.93322C6.73226 9.11569 6.5613 8.98724 6.49794 8.808"
    stroke="white" stroke-width="0.5" stroke-linecap="round" stroke-linejoin="round" />
  <path d="M7.08691 7.26916V6.80762" stroke="white" stroke-width="0.5" stroke-linecap="round" stroke-linejoin="round" />
  <path d="M7.08691 9.57677V9.11523" stroke="white" stroke-width="0.5" stroke-linecap="round" stroke-linejoin="round" />
</svg>