<svg xmlns="http://www.w3.org/2000/svg" viewBox="0 0 32 32">
  <path
    fill="currentColor"
    d="M29.792 13.888c-0.512-3.168-2.080-5.792-4.608-7.712-3.744-2.848-7.872-3.488-12.224-1.792-4.224 1.632-6.816 4.8-7.776 9.216-0.096 0.512-0.16 0.992-0.224 1.536-0.416-0.448-0.8-0.864-1.184-1.28-0.416-0.448-1.056-0.48-1.472-0.128-0.416 0.416-0.416 0.992 0.032 1.472 0.864 0.96 1.76 1.888 2.656 2.848 0.544 0.608 1.056 0.608 1.664 0.064 0.928-0.864 1.856-1.728 2.752-2.592 0.128-0.096 0.224-0.224 0.32-0.352 0.256-0.384 0.16-0.928-0.192-1.216-0.384-0.32-0.896-0.352-1.28 0-0.416 0.352-0.8 0.704-1.216 1.088l-0.064-0.032c0.064-0.416 0.096-0.8 0.192-1.184 1.035-4.81 5.252-8.363 10.298-8.363 0.601 0 1.19 0.050 1.764 0.147l-0.062-0.009c5.12 0.864 8.832 5.184 8.864 10.368 0 3.072-1.12 5.696-3.392 7.776-2.816 2.592-6.144 3.36-9.824 2.496-1.824-0.448-3.392-1.376-4.736-2.656-0.48-0.48-1.056-0.48-1.472-0.064s-0.384 0.992 0.128 1.472c2.912 2.752 6.368 3.936 10.336 3.456 3.2-0.384 5.824-1.856 7.904-4.256 2.528-2.976 3.456-6.464 2.816-10.304zM17.984 9.44c0-0.16-0.032-0.32-0.032-0.48-0.096-0.544-0.64-0.864-1.184-0.736-0.48 0.096-0.768 0.48-0.768 1.056v7.328c0 0.8 0.352 1.184 1.152 1.184h4.736c0.608-0.064 0.96-0.48 0.928-1.024s-0.448-0.928-1.024-0.928h-3.84v-0.448c0.032-1.984 0.032-3.968 0.032-5.952z"
  ></path>
</svg>
