<svg viewBox="0 0 21 22" fill="none" xmlns="http://www.w3.org/2000/svg">
  <path fill-rule="evenodd" clip-rule="evenodd"
    d="M18.4138 7.00571L17.831 5.99429C17.3379 5.13846 16.2451 4.84323 15.3881 5.33429V5.33429C14.9802 5.5746 14.4934 5.64278 14.0351 5.52379C13.5768 5.4048 13.1847 5.10842 12.9452 4.7C12.7912 4.4404 12.7084 4.14472 12.7052 3.84286V3.84286C12.7191 3.35889 12.5366 2.88991 12.1991 2.54275C11.8616 2.19558 11.398 1.9998 10.9138 2H9.73952C9.26519 1.99999 8.81041 2.18901 8.47581 2.52521C8.14121 2.86142 7.95438 3.3171 7.95666 3.79143V3.79143C7.94261 4.77075 7.14466 5.55724 6.16524 5.55714C5.86337 5.55401 5.56769 5.47122 5.30809 5.31714V5.31714C4.4511 4.82608 3.35833 5.12132 2.86524 5.97714L2.23952 7.00571C1.74702 7.86047 2.03824 8.95254 2.89095 9.44857V9.44857C3.44523 9.76858 3.78667 10.36 3.78667 11C3.78667 11.64 3.44523 12.2314 2.89095 12.5514V12.5514C2.03932 13.0441 1.74778 14.1335 2.23952 14.9857V14.9857L2.83095 16.0057C3.06199 16.4226 3.44963 16.7302 3.90809 16.8605C4.36656 16.9908 4.85805 16.9331 5.27381 16.7V16.7C5.68252 16.4615 6.16956 16.3962 6.62668 16.5185C7.0838 16.6408 7.47312 16.9407 7.70809 17.3514C7.86217 17.611 7.94496 17.9067 7.94809 18.2086V18.2086C7.94809 19.198 8.75014 20 9.73952 20H10.9138C11.8998 20 12.7005 19.2032 12.7052 18.2171V18.2171C12.7029 17.7413 12.8909 17.2843 13.2274 16.9479C13.5639 16.6114 14.0208 16.4234 14.4967 16.4257C14.7978 16.4338 15.0923 16.5162 15.3538 16.6657V16.6657C16.2086 17.1582 17.3006 16.867 17.7967 16.0143V16.0143L18.4138 14.9857C18.6527 14.5757 18.7183 14.0874 18.596 13.6288C18.4737 13.1703 18.1737 12.7795 17.7624 12.5429V12.5429C17.3511 12.3062 17.051 11.9154 16.9288 11.4569C16.8065 10.9984 16.8721 10.51 17.111 10.1C17.2663 9.82879 17.4912 9.60391 17.7624 9.44857V9.44857C18.61 8.95281 18.9005 7.86712 18.4138 7.01429V7.01429V7.00571Z"
    stroke="currentColor" stroke-width="2" stroke-linecap="round" stroke-linejoin="round" />
  <circle cx="10.3309" cy="10.9998" r="2.46857" stroke="currentColor" stroke-width="2" stroke-linecap="round"
    stroke-linejoin="round" />
</svg>