<?xml version="1.0" encoding="UTF-8"?>
<svg
  xmlns="http://www.w3.org/2000/svg"
  version="1.1"
  xmlns:xlink="http://www.w3.org/1999/xlink"
  viewBox="0 0 44.8 44.8"
>
  <path
    fill="currentColor"
    d="M44.8,22.4c0,1.1,0,2.2-.2,3.2h-3.2c.2-1,.3-2.1.3-3.2-.1-10.6-8.7-19.2-19.3-19.2S3.2,11.8,3.2,22.4s8.6,19.2,19.2,19.2h11.5c-3.4,2-7.3,3.2-11.5,3.2C10,44.8,0,34.7,0,22.4S10,0,22.4,0s22.4,10,22.4,22.4ZM32,35.2h-9.6c-7.1,0-12.8-5.7-12.8-12.8s5.7-12.8,12.8-12.8,12.8,5.7,12.8,12.8-.1,2.2-.4,3.2h3.3c.2-1,.3-2.1.3-3.2,0-8.8-7.2-16-16-16S6.4,13.6,6.4,22.4s7.2,16,16,16h15.6c1-1,2-2.1,2.8-3.2h-8.8ZM37,28.8h-14.7c-3.5,0-6.4-2.9-6.4-6.4s2.9-6.4,6.4-6.4,6.4,2.9,6.4,6.4-.3,2.3-.9,3.2h3.5c.4-1,.5-2.1.5-3.2,0-5.3-4.3-9.6-9.6-9.6s-9.6,4.3-9.6,9.6,4.3,9.6,9.6,9.6h20.4c.5-1,.9-2.1,1.2-3.2h-6.8Z"
  />
</svg>
