<svg viewBox="0 0 46 46" fill="none" xmlns="http://www.w3.org/2000/svg">
  <circle cx="22.9565" cy="22.9565" r="22.9565" fill="currentColor" />
  <path
    d="M20.131 14.002C20.5837 14.002 20.9553 14.3761 21.0001 14.8555L21.005 14.9521V31.3359C21.005 31.861 20.6139 32.287 20.131 32.2871C19.8537 32.287 19.6066 32.1466 19.4464 31.9277C19.4182 31.9018 19.3901 31.8747 19.3634 31.8457L14.7599 26.8398C14.3363 26.3792 14.2691 25.7043 14.6105 25.333C14.9519 24.9618 15.5725 25.0348 15.9962 25.4951L19.256 29.0391V14.9521L19.2609 14.8555C19.3057 14.3761 19.6783 14.0021 20.131 14.002ZM26.0411 14C26.3154 14.0001 26.5605 14.1377 26.7208 14.3525C26.7508 14.3798 26.7804 14.4087 26.8087 14.4395L31.4122 19.4453C31.8358 19.906 31.903 20.5808 31.5616 20.9521C31.2201 21.3232 30.5996 21.2504 30.1759 20.79L26.9161 17.2461V31.335L26.9112 31.4316C26.8664 31.911 26.4938 32.285 26.0411 32.2852C25.5885 32.2849 25.2168 31.9109 25.172 31.4316L25.1671 31.335V14.9512C25.1671 14.4262 25.5584 14.0003 26.0411 14Z"
    fill="white" />
</svg>