<svg viewBox="0 0 24 24" fill="none" xmlns="http://www.w3.org/2000/svg">
  <path
    d="M21.4504 13.6398V14.6398C21.4504 14.7707 21.3991 14.8964 21.3075 14.9899C21.2159 15.0833 21.0912 15.1372 20.9604 15.1398H19.5004C18.9704 15.1398 18.4904 14.7498 18.4504 14.2298C18.4204 13.9198 18.5404 13.6298 18.7404 13.4298C18.8309 13.336 18.9398 13.2619 19.0602 13.212C19.1806 13.1621 19.31 13.1375 19.4404 13.1398H20.9504C21.2404 13.1498 21.4504 13.3698 21.4504 13.6398Z"
    fill="currentColor" />
  <path
    d="M17.9902 12.69C17.4902 13.18 17.2502 13.91 17.4502 14.67C17.7102 15.6 18.6202 16.19 19.5802 16.19H20.4502C21.0002 16.19 21.4502 16.64 21.4502 17.19V17.38C21.4502 19.45 19.7602 21.14 17.6902 21.14H6.2102C4.1402 21.14 2.4502 19.45 2.4502 17.38V10.65C2.4502 9.41996 3.0402 8.32996 3.9502 7.64996C4.5802 7.16996 5.3602 6.88996 6.2102 6.88996H17.6902C19.7602 6.88996 21.4502 8.57996 21.4502 10.65V11.09C21.4502 11.64 21.0002 12.09 20.4502 12.09H19.4302C18.8702 12.09 18.3602 12.31 17.9902 12.69ZM16.2002 4.81996C16.4702 5.08996 16.2402 5.50996 15.8602 5.50996L8.1802 5.49996C7.7402 5.49996 7.5102 4.95996 7.8302 4.64996L9.4502 3.01996C10.1102 2.36654 11.0014 2 11.9302 2C12.8589 2 13.7502 2.36654 14.4102 3.01996L16.1602 4.78996C16.1702 4.79996 16.1902 4.80996 16.2002 4.81996Z"
    fill="currentColor" />
</svg>